<mxfile host="6a166e98-4737-4d05-bb21-fdcdfca15376" modified="2020-09-13T13:28:52.394Z" agent="5.0 (Macintosh; Intel Mac OS X 10_15_6) AppleWebKit/537.36 (KHTML, like Gecko) Code/1.48.2 Chrome/78.0.3904.130 Electron/7.3.2 Safari/537.36" etag="fdukPITZZorNH79ik2m_" version="13.1.3">
    <diagram id="6hGFLwfOUW9BJ-s0fimq" name="Page-1">
        <mxGraphModel dx="785" dy="479" grid="1" gridSize="10" guides="1" tooltips="1" connect="1" arrows="1" fold="1" page="1" pageScale="1" pageWidth="827" pageHeight="1169" math="0" shadow="0">
            <root>
                <mxCell id="0"/>
                <mxCell id="1" parent="0"/>
                <mxCell id="2" value="路由机制" style="swimlane;html=1;childLayout=stackLayout;resizeParent=1;resizeParentMax=0;startSize=20;fontSize=9;" parent="1" vertex="1">
                    <mxGeometry x="200" y="100" width="441" height="330" as="geometry"/>
                </mxCell>
                <mxCell id="3" value="App" style="swimlane;html=1;startSize=20;fontSize=9;" parent="2" vertex="1">
                    <mxGeometry y="20" width="123" height="310" as="geometry"/>
                </mxCell>
                <mxCell id="8" value="" style="edgeStyle=orthogonalEdgeStyle;rounded=0;orthogonalLoop=1;jettySize=auto;html=1;fontSize=9;" parent="3" source="6" edge="1">
                    <mxGeometry relative="1" as="geometry">
                        <mxPoint x="62" y="70" as="targetPoint"/>
                    </mxGeometry>
                </mxCell>
                <mxCell id="11" value="" style="endArrow=classic;html=1;exitX=1;exitY=0.5;exitDx=0;exitDy=0;exitPerimeter=0;fontSize=9;" parent="3" source="10" edge="1">
                    <mxGeometry width="50" height="50" relative="1" as="geometry">
                        <mxPoint x="67" y="125" as="sourcePoint"/>
                        <mxPoint x="160" y="100" as="targetPoint"/>
                    </mxGeometry>
                </mxCell>
                <mxCell id="10" value="" style="line;strokeWidth=1;direction=south;html=1;fontSize=9;" parent="3" vertex="1">
                    <mxGeometry x="57" y="90" width="10" height="10" as="geometry"/>
                </mxCell>
                <mxCell id="6" value="App.onLaunch" style="text;html=1;align=center;verticalAlign=middle;resizable=0;points=[];autosize=1;spacing=2;horizontal=1;fontStyle=0;fontSize=9;fontFamily=Times New Roman;" parent="3" vertex="1">
                    <mxGeometry x="27" y="30" width="70" height="20" as="geometry"/>
                </mxCell>
                <mxCell id="7" value="&lt;font style=&quot;font-size: 9px;&quot;&gt;App.onShow&lt;/font&gt;" style="text;html=1;align=center;verticalAlign=middle;resizable=0;points=[];autosize=1;spacing=2;horizontal=1;fontStyle=0;fontSize=9;fontFamily=Times New Roman;" parent="3" vertex="1">
                    <mxGeometry x="27" y="70" width="70" height="20" as="geometry"/>
                </mxCell>
                <mxCell id="27" value="App.onHide" style="text;html=1;align=center;verticalAlign=middle;resizable=0;points=[];autosize=1;spacing=2;horizontal=1;fontStyle=0;fontSize=9;fontFamily=Times New Roman;" parent="3" vertex="1">
                    <mxGeometry x="22" y="275" width="60" height="20" as="geometry"/>
                </mxCell>
                <mxCell id="4" value="Page1" style="swimlane;html=1;startSize=20;fontSize=9;" parent="2" vertex="1">
                    <mxGeometry x="123" y="20" width="159" height="310" as="geometry"/>
                </mxCell>
                <mxCell id="14" value="" style="edgeStyle=orthogonalEdgeStyle;rounded=0;orthogonalLoop=1;jettySize=auto;html=1;fontSize=9;" parent="4" source="12" edge="1">
                    <mxGeometry relative="1" as="geometry">
                        <mxPoint x="86" y="130" as="targetPoint"/>
                    </mxGeometry>
                </mxCell>
                <mxCell id="17" value="" style="edgeStyle=orthogonalEdgeStyle;rounded=0;orthogonalLoop=1;jettySize=auto;html=1;fontSize=9;" parent="4" edge="1">
                    <mxGeometry relative="1" as="geometry">
                        <mxPoint x="85.82999999999998" y="150" as="sourcePoint"/>
                        <mxPoint x="86" y="167" as="targetPoint"/>
                        <Array as="points">
                            <mxPoint x="86" y="147"/>
                            <mxPoint x="86" y="147"/>
                        </Array>
                    </mxGeometry>
                </mxCell>
                <mxCell id="22" value="" style="edgeStyle=orthogonalEdgeStyle;rounded=0;orthogonalLoop=1;jettySize=auto;html=1;fontSize=9;" parent="4" edge="1">
                    <mxGeometry relative="1" as="geometry">
                        <mxPoint x="86" y="228" as="sourcePoint"/>
                        <mxPoint x="86" y="248" as="targetPoint"/>
                        <Array as="points">
                            <mxPoint x="86" y="248"/>
                            <mxPoint x="86" y="248"/>
                        </Array>
                    </mxGeometry>
                </mxCell>
                <mxCell id="40" value="" style="line;strokeWidth=1;direction=south;html=1;fontSize=9;" parent="4" vertex="1">
                    <mxGeometry x="2.5" y="140" width="35.5" height="77" as="geometry"/>
                </mxCell>
                <mxCell id="42" value="" style="endArrow=classic;html=1;fontSize=9;" parent="4" edge="1">
                    <mxGeometry width="50" height="50" relative="1" as="geometry">
                        <mxPoint x="20.5" y="139.8" as="sourcePoint"/>
                        <mxPoint x="49" y="139.7999999999999" as="targetPoint"/>
                    </mxGeometry>
                </mxCell>
                <mxCell id="39" value="" style="line;strokeWidth=1;html=1;fontSize=9;" parent="4" vertex="1">
                    <mxGeometry x="20.5" y="212" width="30" height="10" as="geometry"/>
                </mxCell>
                <mxCell id="91" value="前后台切换" style="text;html=1;align=center;verticalAlign=middle;resizable=0;points=[];autosize=1;fontSize=9;" vertex="1" parent="4">
                    <mxGeometry x="2.5" y="150" width="60" height="20" as="geometry"/>
                </mxCell>
                <mxCell id="15" value="Page.onReady" style="text;html=1;align=center;verticalAlign=middle;resizable=0;points=[];autosize=1;spacing=2;horizontal=1;fontStyle=0;fontSize=9;fontFamily=Times New Roman;" parent="4" vertex="1">
                    <mxGeometry x="50.5" y="167" width="70" height="20" as="geometry"/>
                </mxCell>
                <mxCell id="21" value="Page.onHide" style="text;html=1;align=center;verticalAlign=middle;resizable=0;points=[];autosize=1;spacing=2;horizontal=1;fontStyle=0;fontSize=9;fontFamily=Times New Roman;" parent="4" vertex="1">
                    <mxGeometry x="50.5" y="207" width="70" height="20" as="geometry"/>
                </mxCell>
                <mxCell id="23" value="Page.onUnload" style="text;html=1;align=center;verticalAlign=middle;resizable=0;points=[];autosize=1;spacing=2;horizontal=1;fontStyle=0;fontSize=9;fontFamily=Times New Roman;" parent="4" vertex="1">
                    <mxGeometry x="51" y="247" width="70" height="20" as="geometry"/>
                </mxCell>
                <mxCell id="12" value="Page.onLoad" style="text;html=1;align=center;verticalAlign=middle;resizable=0;points=[];autosize=1;spacing=2;horizontal=1;fontStyle=0;fontSize=9;fontFamily=Times New Roman;" parent="4" vertex="1">
                    <mxGeometry x="51" y="90" width="70" height="20" as="geometry"/>
                </mxCell>
                <mxCell id="13" value="Page.onShow" style="text;html=1;align=center;verticalAlign=middle;resizable=0;points=[];autosize=1;spacing=2;horizontal=1;fontStyle=0;fontSize=9;fontFamily=Times New Roman;" parent="4" vertex="1">
                    <mxGeometry x="50.5" y="130" width="70" height="20" as="geometry"/>
                </mxCell>
                <mxCell id="25" value="" style="line;strokeWidth=1;direction=south;html=1;fontSize=9;" parent="4" vertex="1">
                    <mxGeometry x="80" y="266" width="10" height="21" as="geometry"/>
                </mxCell>
                <mxCell id="26" value="" style="endArrow=classic;html=1;exitX=1;exitY=0.5;exitDx=0;exitDy=0;exitPerimeter=0;entryX=1.005;entryY=0.64;entryDx=0;entryDy=0;entryPerimeter=0;fontSize=9;" parent="2" source="25" target="27" edge="1">
                    <mxGeometry width="50" height="50" relative="1" as="geometry">
                        <mxPoint x="205" y="286" as="sourcePoint"/>
                        <mxPoint x="87" y="305" as="targetPoint"/>
                    </mxGeometry>
                </mxCell>
                <mxCell id="44" value="" style="edgeStyle=elbowEdgeStyle;elbow=horizontal;endArrow=classic;html=1;exitX=0.996;exitY=0.586;exitDx=0;exitDy=0;exitPerimeter=0;entryX=0.009;entryY=0.488;entryDx=0;entryDy=0;entryPerimeter=0;fontSize=9;" parent="2" source="21" edge="1" target="82">
                    <mxGeometry width="50" height="50" relative="1" as="geometry">
                        <mxPoint x="259" y="322" as="sourcePoint"/>
                        <mxPoint x="328.5" y="120" as="targetPoint"/>
                        <Array as="points">
                            <mxPoint x="260" y="227"/>
                        </Array>
                    </mxGeometry>
                </mxCell>
                <mxCell id="45" value="" style="edgeStyle=elbowEdgeStyle;elbow=horizontal;endArrow=classic;html=1;entryX=0.993;entryY=0.551;entryDx=0;entryDy=0;entryPerimeter=0;exitX=-0.023;exitY=0.679;exitDx=0;exitDy=0;exitPerimeter=0;fontSize=9;" parent="2" target="13" edge="1" source="81">
                    <mxGeometry width="50" height="50" relative="1" as="geometry">
                        <mxPoint x="314.03999999999996" y="278.86" as="sourcePoint"/>
                        <mxPoint x="338.75" y="177" as="targetPoint"/>
                        <Array as="points">
                            <mxPoint x="307.5" y="270"/>
                        </Array>
                    </mxGeometry>
                </mxCell>
                <mxCell id="46" value="Page2" style="swimlane;html=1;startSize=20;fontSize=9;" parent="2" vertex="1">
                    <mxGeometry x="282" y="20" width="159" height="310" as="geometry"/>
                </mxCell>
                <mxCell id="76" value="" style="edgeStyle=orthogonalEdgeStyle;rounded=0;orthogonalLoop=1;jettySize=auto;html=1;fontSize=9;" edge="1" parent="46">
                    <mxGeometry relative="1" as="geometry">
                        <mxPoint x="79.5" y="128.5" as="targetPoint"/>
                        <mxPoint x="79.51428571428573" y="108.5" as="sourcePoint"/>
                    </mxGeometry>
                </mxCell>
                <mxCell id="77" value="" style="edgeStyle=orthogonalEdgeStyle;rounded=0;orthogonalLoop=1;jettySize=auto;html=1;fontSize=9;" edge="1" parent="46">
                    <mxGeometry relative="1" as="geometry">
                        <mxPoint x="79.32999999999993" y="148.5" as="sourcePoint"/>
                        <mxPoint x="79.5" y="165.5" as="targetPoint"/>
                        <Array as="points">
                            <mxPoint x="79.5" y="145.5"/>
                            <mxPoint x="79.5" y="145.5"/>
                        </Array>
                    </mxGeometry>
                </mxCell>
                <mxCell id="78" value="" style="edgeStyle=orthogonalEdgeStyle;rounded=0;orthogonalLoop=1;jettySize=auto;html=1;fontSize=9;" edge="1" parent="46">
                    <mxGeometry relative="1" as="geometry">
                        <mxPoint x="79.5" y="226.5" as="sourcePoint"/>
                        <mxPoint x="79.5" y="246.5" as="targetPoint"/>
                        <Array as="points">
                            <mxPoint x="79.5" y="246.5"/>
                            <mxPoint x="79.5" y="246.5"/>
                        </Array>
                    </mxGeometry>
                </mxCell>
                <mxCell id="79" value="Page.onReady" style="text;html=1;align=center;verticalAlign=middle;resizable=0;points=[];autosize=1;spacing=2;horizontal=1;fontStyle=0;fontSize=9;fontFamily=Times New Roman;" vertex="1" parent="46">
                    <mxGeometry x="44" y="165.5" width="70" height="20" as="geometry"/>
                </mxCell>
                <mxCell id="80" value="Page.onHide" style="text;html=1;align=center;verticalAlign=middle;resizable=0;points=[];autosize=1;spacing=2;horizontal=1;fontStyle=0;fontSize=9;fontFamily=Times New Roman;" vertex="1" parent="46">
                    <mxGeometry x="44" y="205.5" width="70" height="20" as="geometry"/>
                </mxCell>
                <mxCell id="83" value="Page.onShow" style="text;html=1;align=center;verticalAlign=middle;resizable=0;points=[];autosize=1;spacing=2;horizontal=1;fontStyle=0;fontSize=9;fontFamily=Times New Roman;" vertex="1" parent="46">
                    <mxGeometry x="44" y="128.5" width="70" height="20" as="geometry"/>
                </mxCell>
                <mxCell id="84" value="" style="edgeStyle=orthogonalEdgeStyle;rounded=0;orthogonalLoop=1;jettySize=auto;html=1;fontSize=9;" edge="1" parent="46">
                    <mxGeometry relative="1" as="geometry">
                        <mxPoint x="79.5" y="204.5" as="targetPoint"/>
                        <mxPoint x="79.5" y="184.5" as="sourcePoint"/>
                    </mxGeometry>
                </mxCell>
                <mxCell id="82" value="Page.onLoad" style="text;html=1;align=center;verticalAlign=middle;resizable=0;points=[];autosize=1;spacing=2;horizontal=1;fontStyle=0;fontSize=9;fontFamily=Times New Roman;" vertex="1" parent="46">
                    <mxGeometry x="44.5" y="90" width="70" height="20" as="geometry"/>
                </mxCell>
                <mxCell id="81" value="Page.onUnload" style="text;html=1;align=center;verticalAlign=middle;resizable=0;points=[];autosize=1;spacing=2;horizontal=1;fontStyle=0;fontSize=9;fontFamily=Times New Roman;" vertex="1" parent="46">
                    <mxGeometry x="54.5" y="250" width="70" height="20" as="geometry"/>
                </mxCell>
                <mxCell id="61" value="" style="edgeStyle=orthogonalEdgeStyle;rounded=0;orthogonalLoop=1;jettySize=auto;html=1;fontSize=9;" edge="1" parent="1">
                    <mxGeometry relative="1" as="geometry">
                        <mxPoint x="406" y="326" as="targetPoint"/>
                        <mxPoint x="406" y="306" as="sourcePoint"/>
                    </mxGeometry>
                </mxCell>
            </root>
        </mxGraphModel>
    </diagram>
</mxfile>